<?xml version="1.0" encoding="iso-8859-1"?>
<!-- Generator: Adobe Illustrator 19.0.0, SVG Export Plug-In . SVG Version: 6.00 Build 0)  -->
<svg version="1.1" id="Layer_1" xmlns="http://www.w3.org/2000/svg" xmlns:xlink="http://www.w3.org/1999/xlink" x="0px" y="0px"
	 viewBox="0 0 511.999 511.999" style="enable-background:new 0 0 511.999 511.999;" xml:space="preserve">
<path style="fill:#a685e2;" d="M255.999,0C114.841,0,0,114.841,0,255.999s114.841,255.999,255.999,255.999
	s255.999-114.84,255.999-255.999S397.158,0,255.999,0z M483.755,242.095h-47.88c-7.679,0-13.904,6.225-13.904,13.904
	c0,6.767,4.836,12.399,11.239,13.643c-6.646,87.147-76.42,156.921-163.567,163.567c-1.244-6.403-6.876-11.239-13.643-11.239
	s-12.399,4.836-13.643,11.239c-87.147-6.646-156.921-76.42-163.567-163.567c6.403-1.244,11.239-6.876,11.239-13.643
	c0-6.767-4.836-12.399-11.239-13.643c6.646-87.147,76.42-156.921,163.567-163.567c1.244,6.403,6.876,11.239,13.643,11.239
	c7.679,0,13.904-6.225,13.904-13.904v-47.88C384.676,35.178,476.82,127.323,483.755,242.095z M242.095,28.244v22.699
	C139.82,57.809,57.81,139.818,50.943,242.095H28.245C35.178,127.323,127.323,35.178,242.095,28.244z M28.245,269.904h22.699
	c6.866,102.275,88.875,184.285,191.152,191.152v22.699C127.323,476.82,35.178,384.676,28.245,269.904z M269.904,483.755v-22.699
	c102.275-6.866,184.285-88.875,191.152-191.152h22.699C476.82,384.676,384.676,476.82,269.904,483.755z"/>
<circle style="fill:#CEE8FA;" cx="255.994" cy="223.305" r="37.556"/>
<g>
	<path style="fill:#a685e2;" d="M255.999,274.769c-28.377,0-51.466-23.087-51.466-51.466s23.087-51.466,51.466-51.466
		s51.466,23.087,51.466,51.466S284.377,274.769,255.999,274.769z M255.999,199.646c-13.044,0-23.657,10.612-23.657,23.657
		c0,13.045,10.612,23.657,23.657,23.657c13.045,0,23.657-10.612,23.657-23.657S269.044,199.646,255.999,199.646z"/>
	<path style="fill:#a685e2;" d="M255.999,393.339c-3.375,0-6.749-1.222-9.409-3.668c-3.875-3.562-94.906-88.134-94.906-166.696
		c0-11.073,1.73-21.981,5.14-32.422c2.385-7.3,10.238-11.283,17.535-8.897c7.3,2.385,11.283,10.235,8.897,17.535
		c-2.499,7.647-3.765,15.649-3.765,23.785c0,52.979,54.247,114.09,76.535,136.961c3.351-3.42,7.418-7.7,11.898-12.671
		c5.138-5.706,13.929-6.167,19.637-1.025c5.706,5.139,6.165,13.932,1.025,19.637c-13.097,14.54-22.796,23.443-23.202,23.814
		C262.729,392.123,259.364,393.339,255.999,393.339z"/>
	<path style="fill:#a685e2;" d="M312.284,327.25c-2.672,0-5.374-0.769-7.757-2.375c-6.368-4.291-8.053-12.932-3.761-19.301
		c21.061-31.256,31.74-59.046,31.74-82.599c0-42.186-34.32-76.506-76.506-76.506c-16.413,0-32.055,5.117-45.234,14.797
		c-6.189,4.545-14.89,3.215-19.437-2.976c-4.547-6.189-3.215-14.892,2.976-19.437c17.987-13.211,39.32-20.193,61.697-20.193
		c57.52,0,104.315,46.795,104.315,104.315c0,29.189-12.276,62.208-36.487,98.139C321.143,325.099,316.753,327.25,312.284,327.25z"/>
</g>
<g>
</g>
<g>
</g>
<g>
</g>
<g>
</g>
<g>
</g>
<g>
</g>
<g>
</g>
<g>
</g>
<g>
</g>
<g>
</g>
<g>
</g>
<g>
</g>
<g>
</g>
<g>
</g>
<g>
</g>
</svg>
